<svg width="152" height="215" viewBox="0 0 152 215" fill="none" xmlns="http://www.w3.org/2000/svg">
<path d="M18.6271 206.658C16.962 204.167 15.3915 200.742 14.3901 198.084C14.0728 197.245 14.452 197.582 14.247 197.002C13.852 195.876 13.3317 194.883 12.9942 193.761C12.8827 193.386 13.3728 193.715 13.249 193.324C12.5734 191.188 11.7859 189.259 11.1354 187.108C11.067 186.881 10.9985 186.653 10.93 186.423C7.8958 175.174 9.18802 164.577 9.81258 153.852C10.014 151.083 10.4072 147.877 10.6087 144.852C10.6721 143.897 10.7383 142.964 10.7935 142.068C10.8215 141.621 10.5022 141.857 10.4864 141.77C10.2571 140.389 10.802 140.904 10.9846 140.043C11.7148 136.641 12.495 132.897 13.2423 129.663C13.5633 128.286 12.6238 129.499 13.3223 128.213C13.3706 128.124 13.5741 128.554 13.7119 128.191C14.0194 127.37 14.4544 125.763 14.6899 125.128C15.1434 123.901 15.2112 123.695 15.6239 122.535C16.1954 120.947 17.061 119.134 17.6864 117.444C17.8191 117.082 17.3269 117.429 17.5128 116.842C17.6994 116.248 18.3699 114.768 18.6647 114.297C18.957 113.827 19.0922 114.144 19.1845 114.079C19.9516 113.552 20.1225 111.577 20.2139 111.348C20.8589 109.71 21.5799 108.221 22.3255 106.795C23.4863 104.575 24.8414 102.572 26.2934 100.497C28.1245 97.8707 30.2682 95.1857 32.4252 93.0503C34.9979 90.5082 37.4327 88.6635 40.1561 86.5148C40.4446 86.2892 39.8736 86.252 40.2272 85.9755C40.3513 85.8787 40.4757 85.7822 40.6004 85.6861C44.4594 82.7262 48.8762 80.8926 53.3171 79.6698C53.7798 79.5443 53.2999 80.0512 53.7648 79.9464C56.6177 79.2755 61.1639 78.7987 62.4973 77.0121C64.4132 76.6149 66.7311 76.166 68.4887 76.086C69.6208 76.0345 68.6348 76.6147 69.945 76.1771C70.2402 76.0791 69.7809 75.8539 70.2288 75.7302C71.1452 75.4774 72.1113 75.2674 73.0755 75.0521C74.1202 74.8189 75.1619 74.6036 76.1455 74.3464C76.5335 74.2445 76.3793 73.9842 76.483 73.9146C77.3586 73.3426 79.049 73.7877 79.3908 73.7948C82.0509 73.8161 83.9393 73.5026 86.3845 73.3751C86.9542 73.3479 86.2612 73.0022 86.8094 72.9633C89.6475 72.7696 92.6056 72.8038 95.3666 73.0844C95.9838 73.1483 95.4018 73.4485 95.6949 73.4958C96.9801 73.7047 97.2992 73.1104 98.5339 73.3236C98.7927 73.3684 98.6271 73.6352 98.6726 73.6689C99.3836 74.1972 100.078 73.5736 100.272 73.5744C101.057 73.5722 101.747 73.6638 102.39 73.7916C103.848 74.0784 105.046 74.6156 106.643 75.0593C106.927 75.1412 106.401 74.5917 107.201 74.85C111.67 76.3112 115.482 79.5816 118.286 83.0528C118.888 83.7847 119.419 84.5577 119.877 85.3546C120.295 86.1008 119.746 85.7223 119.748 85.7862C119.762 86.7718 120.598 86.9261 120.751 87.1691C121.911 89.0645 121.905 91.1508 122.99 92.4175C123.858 97.5818 123.461 102.78 121.972 107.675C120.573 112.023 116.598 114.29 113.06 115.595C112.954 115.634 112.998 115.246 112.788 115.325C110.247 116.219 110.929 116.469 109.447 117.686C109.073 117.989 107.53 117.68 107.403 117.658C106.923 117.59 107.208 116.979 107.057 116.984C105.822 117.029 106.477 118.56 104.897 119.004C104.846 119.015 104.974 118.665 104.833 118.672C104.394 118.695 104.025 118.919 103.593 118.925C102.61 118.932 102.092 118.239 100.801 119.033C100.636 119.134 101.131 119.981 99.7051 120.271C99.1395 120.388 96.6451 120.965 95.9362 121.055C95.2247 121.149 95.6401 120.75 95.5875 120.748C93.6264 120.766 94.3019 120.45 93.2389 120.076C92.1759 119.703 92.7307 121.018 92.3808 121.253C92.03 121.488 90.5863 121.463 90.2247 121.424C89.8632 121.385 90.2434 121.107 89.9297 121.109C87.9007 121.129 89.14 121.938 88.6403 122.312C88.627 122.322 88.6125 122.331 88.5967 122.34C87.0825 123.204 85.6378 122.35 84.1875 122.347C83.7869 122.344 84.1267 122.562 83.7713 122.603C82.354 122.747 81.5208 122.421 79.8935 122.585C79.6387 122.616 78.2301 123.086 77.464 122.472C77.3585 122.385 77.7365 122.194 77.1574 122.024C76.2885 121.776 74.7494 121.315 73.8125 121.08C73.1161 120.907 73.7501 121.584 72.9412 121.152C72.5856 120.955 73.3651 120.983 72.6994 120.633C72.0335 120.297 70.3153 119.507 69.686 119.148C69.054 118.803 69.2368 119.276 69.1751 119.267C68.7984 119.209 67.5173 118.575 67.4191 118.494C67.1286 118.297 66.8448 118.092 66.5716 117.882C61.7948 114.076 59.7388 108.846 57.2272 103.878C57.022 103.459 56.8392 103.883 56.8047 103.82C56.02 102.418 57.3614 103.198 57.1924 102.061C56.6224 102.486 56.4709 101.835 55.9631 100.832C55.718 100.348 55.5857 100.724 55.5411 100.689C54.8532 100.108 55.1259 99.3882 55.1704 99.2145C55.2495 98.9046 55.1379 98.6617 55.0137 98.4437C54.88 98.2086 54.7342 97.9975 54.7939 97.7712C54.9119 97.3381 55.5638 97.9746 55.1893 96.9764C54.8531 96.7732 54.5165 97.7591 54.1374 97.0066C52.6146 94.1413 52.1601 88.2323 52.0276 85.7663C51.8476 83.2899 51.7724 82.4909 51.7847 81.0449C51.8336 78.4344 51.3959 79.4078 51.1282 77.7925C50.8719 76.1697 52.0738 76.9395 52.3229 76.7013C52.5731 76.4697 52.3072 76.2228 52.443 75.939C52.5789 75.6558 52.76 76.2622 52.8037 75.6001C52.8458 74.9348 52.3855 73.1271 52.1208 72.8883C51.5577 72.3881 50.9633 73.2122 51.1759 71.4457C51.1887 71.3447 51.4985 71.6741 51.5316 71.287C51.6819 69.4566 51.7676 67.5857 51.8654 65.7239C51.9323 64.4447 52.0369 63.173 52.2037 61.9303C52.2613 61.509 52.5815 61.9102 52.6192 61.6664C53.0358 59.1362 52.3876 60.0031 51.8837 58.5262C52.712 58.9337 53.2988 58.2154 53.5668 56.3072C53.7351 55.1595 53.3358 55.3013 53.1919 54.5126C53.1479 54.2764 53.5427 53.5019 53.3952 53.3251C52.9156 52.7368 52.1234 53.3889 52.7633 51.4435C52.7928 51.3588 53.0484 51.6981 53.1274 51.4011C53.6517 49.489 53.1095 49.1267 53.559 47.0151C53.9107 45.3582 55.1062 42.5821 55.7793 40.7924C56.6844 41.1353 57.0504 39.3751 56.6771 38.4603C57.1263 37.3045 57.5752 36.0405 58.1146 34.9666C58.2995 34.5987 58.457 34.9551 58.5047 34.9187C59.2471 34.3653 58.8576 33.6235 58.9402 33.3662C59.0808 32.9419 59.2389 32.5295 59.4027 32.1392C60.3302 29.9533 61.6216 28.3233 62.6621 26.1656C62.7056 26.0773 62.2546 25.5405 63.1041 25.2318C63.1599 25.2157 62.8454 26.133 63.662 25.1034C64.4814 24.065 66.362 22.455 67.4241 20.9639C67.6757 20.6015 68.0967 19.4232 69.0463 19.1299C69.1728 19.092 69.2089 19.3217 69.4071 19.2851C70.0431 19.1663 69.8113 18.4573 70.6802 18.4615C71.5499 18.4662 72.8227 17.9322 73.9723 16.4931C74.0095 16.4483 74.0036 15.759 74.4564 15.4118C75.1778 14.8581 76.2676 14.1604 77.0219 13.5867C77.0272 13.5827 77.0324 13.5786 77.0373 13.5747C77.3977 13.3609 76.9983 13.2108 77.0625 13.1682C79.6912 11.5337 81.8615 10.9695 84.9741 9.98947C85.5433 9.81059 87.0383 8.82522 88.2626 8.8293C89.5969 8.84019 88.8206 10.7728 91.4867 9.59868C92.5572 9.13562 93.4832 6.72088 95.8065 7.26692C99.7387 6.03552 103.582 5.81278 107.563 4.6954C107.746 4.64482 108.211 3.96835 108.646 3.89933C109.293 3.79767 109.684 4.00627 110.143 3.94527C112.068 3.69738 113.786 3.18312 115.636 2.93459C116.34 2.83992 116.145 3.15431 116.976 3.04483C117.465 2.98068 117.842 2.80031 118.307 2.66363C118.638 2.57969 119.01 2.52 119.491 2.54592C120.367 2.59445 121.298 3.26588 122.446 3.25231C122.423 2.50415 123.209 2.44727 124.591 2.13803C124.856 2.07836 124.548 1.84199 124.672 1.80039C125.18 1.6253 125.676 1.80348 126.157 1.62115C126.274 1.57726 126.261 1.32219 126.356 1.27199C127.162 0.83459 128.577 1.31432 128.817 1.39917C129.745 1.71885 130.146 1.36143 130.847 1.46871C131.547 1.57659 130.525 1.82493 131.338 1.86743C133.02 1.95527 135.166 1.80219 136.866 1.73482C137.544 1.70631 137.066 1.38739 137.162 1.3754C138.562 1.22381 139.995 1.5265 140.746 0.816399C141.789 2.5313 141.585 0.610889 143.606 0.885574C143.765 0.908036 143.997 1.73 143.395 1.8747C142.794 2.01931 141.864 1.79565 141.032 2.01964C140.834 2.07205 139.727 2.89666 139.574 2.95061C138.374 3.37067 138.145 2.14004 138.078 2.07466C137.313 1.37239 135.958 2.27597 135.596 2.35228C133.932 2.70024 132.5 2.60409 131.111 2.87682C130.203 3.05424 130.163 3.87126 129.446 3.89229C127.062 3.96732 126.141 2.89804 123.977 4.06062C123.514 4.31059 124.066 5.15143 122.29 4.60752C122.179 4.57272 120.843 4.05392 120.147 4.53035C120.059 4.59025 120.088 4.84751 119.968 4.88133C119.451 5.02477 119.031 5.01403 118.563 5.04107L118.653 5.02973C118.394 5.05498 118.122 5.09192 117.814 5.17299C116.947 5.4015 115.895 5.71082 114.88 5.78208C114.258 5.82682 113.405 5.47608 113.097 5.4068C112.207 5.20722 111.436 5.9024 110.848 5.58516C110.263 5.2656 111.163 4.47242 109.768 4.44188C109.833 5.11309 109.838 5.81293 109.875 6.49298C106.923 6.98538 104.013 7.31951 101.084 7.97651C100.723 8.05849 101.169 8.33247 100.785 8.42944C99.1624 8.83999 97.6843 8.91357 96.0294 9.42524C94.7475 9.82343 93.4239 10.563 92.1175 11.0279C91.0978 10.5101 89.177 11.3421 87.7437 11.7394C87.2355 11.8799 87.2042 11.6744 86.8313 11.7285C85.4199 11.9474 86.2664 12.379 85.9419 12.6046C84.5631 13.5857 83.8926 12.1827 82.0992 12.9581C82.0004 12.9971 81.1853 14.2454 81.0617 14.3624C80.2273 15.1147 80.7795 14.1756 80.1451 14.4077C79.3485 14.7052 78.6953 14.9102 78.0098 15.3094L78.2367 15.1609C77.9392 15.3936 77.6358 15.6652 77.3133 16.0066C77.0087 16.3296 76.5001 17.3703 75.5976 17.5851C75.4787 17.6137 75.3574 17.3636 75.2776 17.4069C73.8499 18.2157 74.3616 18.9072 73.8509 19.7121C73.342 20.5151 71.9132 21.0001 71.5874 21.0711C70.7384 21.2518 71.8858 20.5458 71.8894 20.4887C71.9073 19.7876 71.1902 20.5384 70.5849 21.0454C69.9306 20.5094 69.1549 21.3181 69.9619 21.5764C70.0504 21.6031 70.4418 21.1252 70.5849 21.0454C70.6333 22.1204 69.8639 22.9961 68.3978 23.4248C67.7147 23.6327 67.7919 22.9018 66.6363 24.4262C66.1235 25.1244 66.7768 25.2453 66.4201 25.9193C65.6157 27.4466 63.9155 28.9197 63.122 30.4859C62.8376 31.0478 63.4128 30.6711 63.2317 31.0581C62.8594 31.8673 62.3817 32.5268 62.0323 33.3104C61.9348 33.5298 61.8448 33.7577 61.7673 33.9991C61.7345 34.1028 62.1419 33.9925 61.998 34.3342C60.9239 36.9176 59.845 39.1174 58.9087 41.89C58.4506 43.229 57.898 45.6954 57.4961 47.0966C56.7789 49.5157 55.665 52.4732 55.434 54.6382C55.2827 56.0439 55.6621 55.7883 55.7964 56.4144C56.0563 57.6146 55.0622 59.5553 54.9202 59.8275C54.9134 59.8351 54.961 58.6222 54.7257 59.2478C54.3362 59.5875 54.92 59.8144 54.9202 59.8275C54.8157 59.9995 54.5521 62.4121 54.6005 62.8953C54.6211 63.1581 54.9408 63.0282 54.9459 63.1644C54.9775 64.0343 55.0105 64.8999 55.0442 65.7678C55.1349 68.2102 55.1197 70.6449 55.0165 73.0931C55.0103 73.1522 54.6607 73.0638 54.6505 73.2027C54.5002 75.1446 54.9445 76.381 55.2382 77.9581C55.5334 79.5351 55.5062 80.7777 54.9599 81.7436C55.0991 82.9273 54.9672 84.641 54.9087 85.6299C54.8487 86.6206 55.5457 86.6768 55.5678 86.7594C56.3227 89.3297 56.1756 90.8719 56.7798 93.486C56.9979 94.4203 57.5392 95.9945 58.0974 97.1764C58.2919 97.6002 58.4737 97.9882 58.6273 98.3099C59.1255 99.3485 59.2486 100.047 59.7624 100.969C59.8318 101.094 60.0517 100.841 60.0797 100.876C60.8814 101.797 59.9793 101.584 59.9562 101.859C59.8762 102.852 59.8659 103.464 60.7199 104.71C60.9176 105 62.3134 105.409 62.6511 105.912C63.0912 106.57 62.6135 106.492 63.0948 107.169C63.1363 107.226 63.3328 107.1 63.5747 107.541C64.6975 109.582 66.0117 111.712 67.6098 113.253C67.8265 113.462 67.814 112.929 68.127 113.217C68.5203 113.574 68.9302 113.917 69.3519 114.236C70.5496 115.146 71.938 115.981 73.2534 116.694C73.6984 116.934 73.307 117.05 73.3775 117.165C73.8322 117.873 74.9946 117.553 75.1413 117.584C78.7905 118.393 81.7016 119.273 85.5755 118.516C85.7571 118.482 86.8331 117.791 87.6517 117.82C87.8268 117.822 87.9925 117.853 88.1407 117.921C88.2051 117.95 89.1435 118.403 89.7563 117.821C89.7944 117.784 89.2265 117.568 90.1027 117.414C90.979 117.259 92.3265 116.744 93.5879 116.844C93.9865 116.874 95.0122 117.309 96.0137 116.563C96.0823 116.513 97.5375 115.002 98.3183 115.638C98.4438 115.742 98.5404 116.59 99.7512 115.857C99.9815 115.716 99.4835 115.642 100.116 115.369C101.075 114.95 102.465 114.832 103.571 114.136C103.769 114.013 104.497 113.214 105.322 113.418C105.452 113.45 105.325 113.784 105.704 113.701C107.529 113.302 109.269 112.495 110.975 111.951C111.583 111.752 111.476 112.304 112.129 112.129C112.785 111.957 114.016 111.414 114.445 110.874C114.873 110.338 113.907 110.127 114.61 109.555C115.944 108.432 116.826 107.362 117.234 106.229C118.01 103.952 118.573 101.498 118.704 99.0454C118.733 98.3893 118.466 98.9241 118.469 97.9692C118.627 94.3366 116.748 88.9387 115.245 86.6062C115.108 86.3448 115.013 86.152 114.959 86.0089C114.71 85.4393 115.093 85.6116 115.335 85.6742C115.457 85.6994 115.543 85.6972 115.483 85.5433C115.441 85.4465 115.342 85.2893 115.161 85.0514C114.565 84.2653 113.236 84.1385 113.06 84.0072C111.301 82.6972 110.368 81.4996 108.697 80.623C108.353 80.4494 108.505 80.9332 108.219 80.7875C107.243 80.2989 106.274 79.6993 105.292 79.4041C104.852 79.2757 104.857 79.551 104.465 79.4186C103.592 79.1362 102.811 78.8952 101.93 78.599C101.847 78.5745 101.764 78.5492 101.68 78.5233C101.575 78.491 102.326 78.2352 101.436 78.1397C99.9977 77.9871 98.2249 77.6067 96.5576 77.7696C96.0627 77.8198 96.0183 78.412 94.9855 77.958C94.7705 77.865 95.072 77.1534 93.8288 77.7371C93.6133 77.8302 91.5651 78.6302 90.564 78.1068C90.2982 77.9669 89.6116 77.3887 89.0249 77.4964C88.946 77.5132 89.2718 77.8252 88.7882 77.8695C87.0816 78.0219 85.2961 78.0906 83.5645 78.3487C83.1029 78.4188 83.8241 78.6848 83.1363 78.78C81.2505 79.0411 78.8915 79.2755 77.0394 79.4989C76.3586 79.58 76.7759 79.2268 76.7219 79.2059C75.8371 78.87 75.4929 79.6087 75.2383 79.698C74.8566 79.8303 74.494 79.93 74.1377 80.0121C72.9686 80.2809 71.9042 80.3403 70.7352 80.6533C70.3092 80.7665 70.6799 81.0075 70.6001 81.0531C69.7704 81.5097 70.3129 80.8184 69.7394 80.878C68.1322 81.0434 66.3944 81.4489 64.8377 81.8492C64.2663 81.9969 64.9934 82.2012 64.4812 82.3298C61.4507 83.0987 58.3404 83.8668 55.4669 84.5895C54.9271 84.7253 55.172 84.3513 55.0419 84.3267C54.1308 84.1531 53.2285 85.1234 53.0016 85.2716C51.9611 85.9434 51.438 85.8885 50.4844 86.3469C48.3053 87.4067 45.9956 88.6598 43.9918 90.1601C41.4755 92.0369 39.0736 93.9839 37.1379 95.7741C32.5704 100.035 29.3828 103.801 26.7926 109.016C26.6992 109.208 26.6054 109.401 26.5112 109.597C26.3323 109.968 26.8498 109.76 26.7 110.082C24.7652 114.203 22.7835 118.167 21.2973 122.385C21.1756 122.73 21.6912 122.362 21.5082 122.919C21.1353 124.062 20.6135 125.485 20.1319 126.6C19.8978 127.144 19.8544 126.298 19.6251 126.848C19.0905 128.135 18.6432 129.558 18.333 130.946C18.2023 131.538 18.7828 130.749 18.5884 131.507C17.4464 136.038 16.755 140.539 16.1827 145.176C16.099 145.878 16.0077 146.572 15.907 147.276C15.8516 147.662 15.0996 147.955 15.1895 148.788C15.3888 148.862 15.6278 148.874 15.8432 148.914C15.4807 157.042 14.6206 165.02 14.9216 172.872C14.936 173.201 15.2958 172.615 15.3266 173.249C15.5207 176.925 16.0316 180.375 16.6682 183.83C16.7195 184.095 16.3101 184.176 16.3138 184.637C16.32 184.788 16.3639 184.976 16.4691 185.214C16.5477 185.397 17.1888 186.981 17.476 187.338C17.5172 187.387 17.7132 186.987 17.9068 187.503C19.017 190.468 20.1736 193.572 21.3075 196.495C21.488 196.961 20.9566 196.622 21.0827 196.955C22.0037 199.363 23.5152 201.7 24.5258 203.848C25.2085 205.266 24.4092 205.115 24.4347 206.145C24.4343 206.294 25.0317 207.065 24.8159 207.314C24.2788 207.986 23.2224 208.177 22.6836 208.933C22.6297 209.019 22.8969 209.331 23.1372 209.611C23.3896 209.896 23.5311 210.115 22.8844 209.825C22.7526 209.765 21.8216 208.916 21.5431 208.793C21.3309 208.696 21.2802 209.195 20.9201 208.953C20.5498 208.693 20.5344 208.182 20.0296 207.729C19.5315 207.278 19.3516 207.733 18.6271 206.658ZM54.7841 90.0886C54.6228 91.0429 55.8228 90.947 55.3691 90.0466C55.3461 90.0035 54.792 90.04 54.7841 90.0886ZM103.847 6.45414C102.565 6.17187 101.895 7.10575 102.818 7.33111C103.737 7.5584 104.238 6.53984 103.847 6.45414ZM116.177 3.91409C114.707 3.71956 114.753 5.42978 116.197 4.85942C116.282 4.82686 116.264 3.92536 116.177 3.91409ZM22.1146 202.828C22.1048 202.846 22.4666 203.497 22.4879 203.499C23.0118 203.643 22.2982 202.361 22.1146 202.828ZM128.55 2.29192C128.091 2.09192 126.835 2.44652 127.405 2.69225C127.863 2.88935 129.12 2.53988 128.55 2.29192ZM84.1102 121.767C84.128 121.785 84.6615 121.761 84.643 121.661C84.5792 121.343 83.8518 121.484 84.1102 121.767ZM149.815 1.30262C146.668 1.34666 144.71 0.0150087 148.143 0.0523486C148.764 0.0593249 146.821 0.545613 147.615 0.644317C149.068 0.823949 149.997 -0.088081 151.488 0.332886C151.757 0.41004 149.995 1.30318 149.81 1.30477C149.811 1.30405 149.813 1.30334 149.815 1.30262ZM53.463 90.8633C53.4496 90.8854 53.5759 91.6201 53.5965 91.636C54.0452 91.9555 53.7912 90.4831 53.463 90.8633ZM114.749 114.385C114.809 114.409 116.351 113.521 116.38 113.443C116.809 112.458 113.782 114.216 114.749 114.385ZM55.8133 40.7721C55.7112 39.8705 56.0002 38.9136 56.6754 38.4637C56.3725 39.2216 56.0964 40 55.8133 40.7721Z" fill="#B41414"/>
<path d="M2.47192 194.811C2.98744 194.861 3.47975 195.148 3.84052 195.438C3.94833 195.526 3.8149 195.704 3.88686 195.774C4.02845 195.912 4.22927 195.874 4.353 196.023C4.3954 196.074 4.21401 196.365 4.26104 196.412C4.52828 196.667 4.84053 196.69 5.13527 196.876C6.54169 197.776 7.98831 198.474 9.44863 199.214C9.93822 199.461 10.4251 199.982 10.998 200.067C11.0633 200.076 11.1371 199.788 11.1575 199.77C11.4734 199.496 11.1936 200.025 11.281 200.145C11.6335 200.622 12.1372 200.853 12.6305 200.93C12.8415 200.961 12.867 200.34 12.9386 200.724C12.9438 200.75 12.7777 201.02 12.8183 201.073C12.9096 201.19 13.1509 201.227 13.2337 201.288C13.3916 201.405 13.4221 201.414 13.5889 201.485C13.8182 201.586 14.0289 201.839 14.2995 201.873C14.3578 201.879 14.4094 201.554 14.5133 201.537C14.6171 201.52 14.8287 201.635 14.8754 201.736C14.922 201.837 14.795 202.057 14.7865 202.116C14.7135 202.614 15.2213 202.091 15.2602 202.088C15.9639 202.068 16.3359 202.636 16.8966 202.865C17.3297 203.041 17.8252 203.107 18.2276 203.292C18.7088 203.514 19.0412 203.839 19.5267 204.008C19.5776 204.026 19.6635 203.653 19.726 203.675C20.3813 203.899 21.0111 204.205 21.547 204.704C21.6011 204.754 21.3911 205.026 21.4375 205.095C21.7258 205.51 22.0925 206.372 22.8809 205.138C23.1237 205.3 23.4273 205.491 23.5503 205.858C23.6302 206.094 23.3427 206.365 23.5894 206.301C23.6449 206.287 23.7122 205.973 23.7863 205.974C24.0979 205.979 24.3508 206.197 24.68 206.158C24.7472 206.15 24.8423 205.882 24.8774 205.842C25.1656 205.515 25.1131 206.234 25.1403 206.299C25.3501 206.789 25.6655 206.764 25.9932 206.912C26.0685 206.946 26.1264 206.557 26.2042 206.578C26.6058 206.688 26.9887 206.886 27.2979 207.2C27.3663 207.271 27.1632 207.537 27.1895 207.586C27.3062 207.798 27.5831 207.251 27.6993 207.444C27.724 207.484 27.5958 207.731 27.5904 207.761C27.5045 208.244 27.8569 207.658 27.8887 207.655C28.2971 207.606 28.2319 208.347 28.5884 208.39C28.6312 208.394 28.6831 208.035 28.7952 208.067C29.5433 208.28 30.2589 208.69 30.8517 209.249C30.9441 209.336 30.7622 209.545 30.7563 209.578C30.6687 210.093 31.0092 209.498 31.055 209.49C31.0912 209.485 31.1241 209.487 31.1546 209.494C31.4145 209.555 31.4894 210 31.911 209.382C32.3807 209.718 33.0155 209.846 33.2316 209.842C33.277 209.845 33.27 209.841 33.2003 209.885C33.1316 209.925 33.0309 210.045 33.0301 210.117C33.0331 210.267 33.2207 210.095 33.3908 209.851C33.3992 209.838 33.7345 209.861 33.7496 209.832C33.9273 209.48 33.4045 209.564 32.7509 209.424C32.5876 209.399 33.3267 209.126 33.3788 209.096C33.5755 209.007 34.0777 208.994 34.1146 208.968C34.4003 208.748 32.7769 209.035 32.7396 208.828C32.7411 208.821 33.0448 208.795 33.0713 208.772C33.1544 208.699 33.0252 208.665 33.1168 208.588C33.328 208.409 34.1045 208.204 33.6036 208.092C33.539 208.08 32.6323 208.309 32.6329 208.108C32.6342 208.027 32.5362 207.677 32.5705 207.563C32.605 207.448 32.9146 207.446 32.9256 207.436C33.2456 207.067 33.4321 207.134 33.9703 206.853C34.5055 206.571 33.1553 206.951 32.9894 206.933C32.8232 206.912 33.0924 206.637 33.1899 206.558C33.2879 206.48 33.4893 206.494 33.5406 206.433C33.8734 206.032 32.8329 206.477 32.593 206.438C32.0264 206.354 32.9825 205.903 33.0275 205.675C33.0392 205.613 32.8225 205.719 32.7879 205.675C32.6534 205.499 32.9344 205.294 32.5873 205.148C32.5411 205.129 32.0988 205.112 32.1591 204.975C32.173 204.945 32.2128 204.909 32.2889 204.866C32.3483 204.832 32.6112 204.812 32.6448 204.713C32.6957 204.567 32.6882 204.32 32.5688 204.208C32.4805 204.125 32.0982 204.349 32.193 204.189C32.2354 204.118 32.5043 204.158 32.5638 204.029C32.6236 203.903 32.5404 203.632 32.5061 203.536C32.4709 203.437 32.1724 203.575 32.1492 203.572C32.0153 203.555 31.8125 203.398 31.8082 203.38C31.54 202.516 31.8596 201.575 31.4661 200.771C31.4356 200.707 31.1163 200.837 31.1082 200.828C30.9105 200.633 31.8363 200.588 32.09 200.354C31.4246 200.549 31.5222 200.425 31.4073 200.283C31.3515 200.215 31.1023 200.323 31.0739 200.323C30.6496 200.309 31.1389 200.098 31.238 200.051C31.602 199.875 31.1275 199.909 31.3709 199.792C31.6124 199.675 32.0202 199.698 31.9761 199.545C31.7248 199.564 31.1258 199.838 30.9941 199.747C30.4955 199.401 30.7793 198.452 30.7409 198.084C30.7019 197.714 30.6294 197.613 30.664 197.384C30.727 196.97 30.2951 197.224 30.0234 197.046C29.7515 196.867 30.9278 196.692 31.1661 196.597C31.4046 196.502 31.1417 196.53 31.267 196.455C31.3924 196.381 31.5823 196.427 31.6092 196.318C31.636 196.209 31.1317 196.058 30.8652 196.089C30.3005 196.154 29.7561 196.415 29.8944 196.111C29.9027 196.093 30.2165 196.065 30.233 196.002C30.3545 195.5 30.2544 195.036 30.3503 194.542C30.3639 194.474 30.7134 194.445 30.7252 194.405C30.8487 193.982 30.3148 194.255 29.6352 194.208C30.4842 194.046 30.9689 193.808 30.9048 193.526C30.8665 193.357 30.5078 193.477 30.223 193.431C30.1372 193.418 30.3591 193.237 30.1817 193.258C29.6015 193.325 28.9994 193.592 29.179 193.241C29.1878 193.226 29.5057 193.19 29.5135 193.142C29.566 192.829 28.9692 192.939 28.8226 192.65C28.7078 192.424 28.9621 191.908 28.9539 191.621C29.8978 191.396 29.6193 191.192 28.9437 191.244C28.927 191.06 28.8437 190.877 28.8921 190.685C28.9083 190.618 29.1908 190.591 29.2185 190.576C29.6533 190.349 29.0021 190.425 28.968 190.393C28.6266 190.037 29.0237 189.58 28.4603 189.299C28.44 189.289 27.7792 189.423 28.232 189.202C28.2634 189.187 28.5931 189.247 28.5711 189.054C28.5492 188.861 28.8168 188.427 28.4507 188.239C28.3626 188.194 27.7927 188.163 28.1784 187.937C28.2308 187.907 28.4233 187.88 28.522 187.831C28.8364 187.672 28.1634 187.786 28.7041 187.559C29.2447 187.33 29.6215 187.042 29.1705 186.87C29.1573 186.864 28.6171 186.926 28.606 186.842C28.5884 186.707 28.6552 186.5 28.6187 186.36C28.6013 186.295 28.2849 186.414 28.2763 186.404C27.9895 186.005 28.2067 185.622 28.2231 185.121C28.2264 185.027 27.724 184.884 28.0371 184.634C28.3798 184.359 30.0266 184.176 29.5481 183.846C29.3728 183.725 27.6001 183.917 28.0729 183.533C28.115 183.498 28.1751 183.458 28.256 183.412C27.8603 182.88 28.2762 182.203 27.7723 181.69C27.75 181.667 27.1625 181.708 27.1559 181.64C27.1478 181.542 27.4029 181.433 27.4061 181.363C27.426 181.066 27.143 180.856 27.1216 180.576C27.1133 180.472 27.3965 180.451 27.386 180.323C27.3751 180.194 26.9967 180.195 27.1369 179.987C27.2448 179.832 27.963 179.559 28.0165 179.376C27.282 179.515 27.2744 179.399 27.0407 179.232C26.9955 179.2 26.7482 179.291 26.7136 179.279C26.5676 179.231 26.7654 179.117 26.6081 179.072C26.5703 179.061 26.3194 179.108 26.2743 179.102C25.8821 179.053 26.4075 178.738 26.5002 178.689C26.8492 178.487 26.511 178.483 26.6404 178.358C26.7691 178.228 26.9807 178.349 27.0486 178.213C27.1902 177.938 27.0967 177.634 27.0693 177.384C27.0566 177.284 26.7306 177.405 26.721 177.391C26.6033 177.2 26.9314 176.937 26.2434 176.92C27.9621 176.533 26.0565 176.818 26.3661 176.471C26.3913 176.444 27.2112 176.312 27.3432 176.383C27.4753 176.456 27.2355 176.621 27.4406 176.716C27.489 176.741 28.2817 176.789 28.3318 176.805C28.7206 176.917 27.4988 177.131 27.4326 177.15C26.7218 177.367 27.5821 177.439 27.648 177.483C27.9489 177.679 27.8122 177.912 28.0348 178.081C28.1789 178.19 28.9804 178.056 28.9748 178.164C28.9555 178.512 27.8671 178.855 28.8939 178.985C29.1134 179.014 29.9714 178.775 29.3346 179.154C29.2943 179.178 28.7053 179.49 29.1226 179.514C29.1753 179.517 29.4288 179.465 29.4537 179.478C29.6158 179.57 29.4296 179.688 29.5527 179.796C29.6765 179.907 29.852 180.027 29.7972 180.193C29.765 180.295 29.3168 180.506 29.2103 180.573C28.9027 180.762 29.4774 180.782 29.0897 180.938C28.7011 181.1 28.0549 181.085 27.836 181.339C28.4949 181.204 29.1732 181.075 29.8368 180.944C29.9067 181.379 29.7882 181.851 29.9139 182.277C29.9302 182.329 30.2707 182.195 30.2972 182.25C30.409 182.486 30.2031 182.744 30.362 182.98C30.3684 182.989 30.3756 182.999 30.3835 183.008C30.527 183.167 30.9142 183.294 31.0479 183.468C30.3255 183.76 30.6516 184.012 30.6333 184.244C30.6273 184.326 30.4259 184.367 30.3733 184.437C30.1799 184.701 30.8198 184.45 30.9373 184.483C31.4399 184.628 29.944 184.99 30.0488 185.272C30.0537 185.286 30.8969 185.288 30.9524 185.301C31.3145 185.386 30.6806 185.393 30.6453 185.508C30.5807 185.718 30.4212 185.895 30.7065 186.058C30.7907 186.104 31.3242 186.139 30.9686 186.354C30.9221 186.382 30.656 186.435 30.6437 186.452C30.4427 186.752 31.2732 186.561 31.5859 186.629C31.8985 186.697 31.3761 187.043 31.2215 187.125C30.8216 187.339 31.0187 187.082 30.9754 187.087C30.4602 187.134 30.5825 187.267 30.5684 187.395C29.7596 187.605 29.8471 187.756 30.5567 187.524C30.6341 187.499 30.5368 187.427 30.5684 187.395C31.39 187.306 31.5345 187.459 30.837 187.836C30.51 188.013 30.0823 188.024 30.2985 188.269C30.3962 188.38 30.9438 188.197 31.1233 188.273C31.5333 188.448 31.0918 188.907 31.2382 189.153C31.2914 189.242 31.5748 189.074 31.6217 189.133C31.7474 189.29 31.5543 189.496 31.7146 189.644C31.7295 189.657 32.0405 189.541 32.0578 189.594C32.1957 190.001 32.0775 190.409 32.1771 190.842C32.2253 191.051 32.4934 191.382 32.5106 191.606C32.5427 191.995 32.1903 192.569 32.3824 192.862C32.5062 193.053 32.815 192.928 33.0552 192.964C33.5204 193.031 32.8387 193.524 32.7317 193.594C32.7281 193.596 32.6082 193.435 32.4676 193.572C32.1391 193.712 32.7297 193.592 32.7317 193.594C32.6626 193.64 32.6788 194.016 32.7576 194.072C32.8007 194.103 33.0985 194.006 33.1152 194.023C33.5054 194.435 33.7019 194.895 33.6816 195.416C33.6777 195.426 33.3355 195.498 33.3303 195.521C33.2498 195.839 33.7099 195.917 34.0141 196.086C34.318 196.254 34.2822 196.46 33.735 196.744C33.8522 196.9 33.6582 197.215 33.5389 197.4C33.4195 197.584 34.0839 197.437 34.1002 197.446C34.6169 197.734 34.2986 198.062 34.3438 198.485C34.3651 198.691 34.5582 199.048 34.6851 199.244C34.786 199.396 34.6574 199.536 34.7953 199.664C34.8138 199.681 35.1017 199.585 35.1146 199.588C35.5093 199.668 34.7714 199.771 34.6524 199.839C34.2199 200.088 33.9926 200.233 34.2681 200.395C34.3313 200.433 35.401 200.312 35.4856 200.39C35.5934 200.491 35.2117 200.541 35.3339 200.643C35.344 200.652 35.5716 200.591 35.5816 200.671C35.6303 201.039 35.5993 201.464 35.7207 201.834C35.7363 201.885 36.0809 201.725 36.1093 201.796C36.2415 202.125 36.3281 202.509 36.2482 202.89C36.2275 202.984 35.9606 202.999 35.8903 203.037C35.4651 203.269 36.1665 203.247 36.1858 203.269C36.3485 203.449 36.4028 203.64 36.4191 203.83C36.4565 204.222 36.3518 204.623 36.6533 205C36.6797 205.032 37.4595 205.117 36.8835 205.398C36.8453 205.418 36.255 205.702 36.7081 205.699C36.7364 205.699 37.0375 205.541 37.0388 205.682C37.0387 205.817 37.3108 205.991 37.0028 206.261C36.9053 206.344 36.3183 206.642 36.8572 206.699C36.8937 206.697 38.0873 206.725 37.3328 207.006C37.2086 207.053 36.3811 207.216 36.852 207.344C36.9435 207.37 37.1102 207.25 37.2501 207.342C37.4652 207.481 37.2923 207.764 37.7042 207.929C37.776 207.951 38.375 208.047 37.9694 208.268C37.9058 208.302 37.6207 208.302 37.6015 208.384C37.5093 208.785 37.7508 209.186 37.5682 209.721C37.5019 209.911 37.0467 209.82 36.9219 210.008C36.7984 210.186 36.6511 210.587 36.7906 210.914C36.9226 211.256 37.7362 211.041 37.6257 211.634C37.4946 212.276 37.0322 213.228 36.1591 213.889C35.2942 214.553 34.3799 214.729 33.7675 214.751C32.5437 214.764 31.9859 214.445 31.4373 214.285C31.2797 214.232 31.333 214.518 31.1064 214.457C30.5338 214.303 29.8036 214.142 29.2998 213.824C29.0907 213.685 28.9213 213.509 28.8369 213.275C28.6322 212.706 29.2409 212.6 29.0223 212.311C28.9163 212.173 28.434 212.884 28.3899 212.894C27.956 213.003 27.872 212.56 27.5308 212.54C27.4603 212.536 27.3863 212.876 27.3277 212.869C27.1267 212.848 26.9997 212.628 26.8192 212.581C26.7378 212.561 26.6498 212.808 26.5874 212.759C26.4367 212.646 26.3309 212.482 26.2627 212.187C26.2565 212.16 26.4842 211.903 26.3645 211.839C26.1705 211.737 26.0151 211.409 25.6869 211.54C25.5891 211.58 25.3538 212.129 25.3663 211.687C25.3689 211.594 25.688 210.951 25.274 211.448C25.2047 211.531 24.5898 212.178 24.6579 211.622C24.6758 211.475 24.8087 210.895 24.6903 210.945C24.6734 210.954 24.5934 211.268 24.5129 211.268C24.232 211.263 23.9912 211.124 23.7036 211.112C23.6267 211.109 23.5965 211.457 23.4859 211.443C23.1813 211.405 22.8773 211.186 22.6519 210.978C22.5687 210.901 22.7432 210.676 22.7476 210.646C22.8211 210.149 22.4987 210.726 22.4457 210.745C22.1199 210.857 22.0593 210.497 21.8104 210.481C21.742 210.476 21.6634 210.782 21.6407 210.803C21.4114 211.003 21.7211 210.523 21.6667 210.433C21.517 210.18 21.2574 210.098 21.0196 210.042C20.9319 210.022 20.8838 210.395 20.8066 210.373C20.3485 210.25 19.9107 210.029 19.562 209.667C19.4969 209.598 19.6547 209.361 19.6626 209.295C19.7196 208.835 19.3175 209.328 19.2567 209.365C18.9795 209.537 19.0078 209.281 18.8328 209.258C17.9827 209.154 17.107 208.614 16.431 208.226C15.5419 207.718 14.9197 207.175 13.9996 206.874C13.941 206.854 13.8578 207.222 13.8056 207.209C13.1432 207.036 12.5688 206.645 11.9035 206.491C11.8478 206.478 11.7912 206.835 11.6975 206.824C11.5042 206.804 11.2939 206.698 11.164 206.524C11.1003 206.44 11.3263 206.205 11.2599 206.126C11.1057 205.941 10.907 205.834 10.6787 205.803C10.5823 205.791 10.579 206.178 10.4643 206.136C9.68667 205.862 8.9221 205.623 8.31141 204.878C8.2705 204.827 8.49451 204.127 8.3311 204.214C8.24771 204.399 8.15994 204.622 8.07613 204.823C6.91745 204.489 5.90775 203.82 4.80651 203.355C4.76056 203.335 4.70154 203.729 4.6121 203.693C4.09028 203.487 3.53651 203.391 3.14326 202.832C3.10377 202.777 3.37471 202.149 3.17511 202.185C3.13912 202.192 2.86852 202.188 2.75825 202.306C2.74242 202.324 2.67409 202.639 2.59648 202.62C2.14039 202.503 1.70086 202.267 1.34341 201.936C1.28199 201.881 1.47025 201.587 1.42743 201.544C1.13725 201.253 0.671471 201.369 0.470119 200.986C0.32456 200.726 0.565707 200.185 0.614502 199.599C0.627985 199.517 0.49226 199.469 0.569002 199.142C0.742845 198.314 1.04667 197.436 1.22644 196.552C1.26549 196.36 0.919909 196.498 1.19983 196.079C1.21948 196.05 1.47914 195.953 1.57834 195.816C1.64347 195.719 1.67048 195.373 1.77392 195.255C1.87817 195.137 1.87295 195.433 2.03082 195.307C2.18902 195.179 2.26278 194.795 2.47192 194.811ZM33.0064 198.226C32.7238 198.441 33.8884 198.166 33.5742 198.092C33.5576 198.088 33.0201 198.216 33.0064 198.226ZM28.9069 182.043C28.4307 182.333 29.2159 182.289 29.5854 182.074C29.9549 181.86 29.0513 181.955 28.9069 182.043ZM28.1382 180.306C27.7734 180.595 29.4403 180.277 29.0595 180.132C29.038 180.124 28.1594 180.29 28.1382 180.306ZM1.21061 199.607C1.21294 199.591 1.11086 199.542 1.10435 199.557C0.934524 199.901 1.13398 199.997 1.21061 199.607ZM27.3673 178.577C27.1533 178.681 27.4496 178.823 27.7145 178.688C27.9275 178.579 27.6334 178.446 27.3673 178.577ZM33.5903 205.52C33.5737 205.526 33.5785 205.607 33.6755 205.58C33.9879 205.491 33.8708 205.408 33.5903 205.52ZM26.8922 175.485C26.8807 175.954 25.5222 176.401 25.6206 175.872C25.6385 175.777 26.0871 176.02 26.1993 175.888C26.4037 175.649 25.5139 175.607 25.9573 175.338C26.0385 175.288 26.896 175.457 26.8943 175.486C26.8936 175.485 26.8929 175.485 26.8922 175.485ZM31.6331 198.657C31.6185 198.664 31.6313 198.775 31.6471 198.774C32.03 198.739 32.0045 198.514 31.6331 198.657ZM33.7083 210.093C33.6763 210.099 33.6182 210.272 33.6456 210.278C34.2301 210.55 34.3774 210.04 33.7083 210.093ZM28.978 191.61C28.5782 191.583 28.5001 191.453 28.9433 191.245C28.9472 191.369 28.9722 191.487 28.978 191.61Z" fill="#DD6D6D"/>
</svg>
