<svg width="130" height="119" viewBox="0 0 130 119" fill="none" xmlns="http://www.w3.org/2000/svg">
<rect width="130" height="119" fill="white"/>
<g filter="url(#filter0_d_0_1)">
<path d="M25.9906 60.0937C24.2521 60.0937 17.2742 58.3282 9.35295 52.4938C6.28012 50.2305 5.40936 44.8722 5.23354 38.7316C5.12624 34.984 6.49503 32.3028 8.15046 29.5383C11.3348 24.2205 16.6478 23.1796 23.6135 22.0724C25.6147 21.7543 27.7112 21.9375 28.348 20.9392C31.9103 15.3549 25.488 8.67613 25.4202 3.91943C25.3945 2.11813 27.0786 1.73569 28.4802 1.84937C34.2945 4.55106 38.9518 9.57459 41.9421 13.9032C43.0493 15.7166 43.3236 16.752 43.6063 18.5812" stroke="black" stroke-width="2" stroke-linecap="round"/>
</g>
<g filter="url(#filter1_d_0_1)">
<path d="M43.6063 18.5813C43.663 18.5813 43.7197 18.5813 45.9883 18.5813C48.2569 18.5813 52.7356 18.5813 58.7156 18.7969" stroke="black" stroke-width="2" stroke-linecap="round"/>
</g>
<g filter="url(#filter2_d_0_1)">
<path d="M58.7156 18.7969C59.2313 17.4977 62.584 12.6099 65.5259 8.69605C66.7928 7.01072 68.2559 4.63072 69.5327 3.32469C69.9133 5.429 69.6326 9.64094 69.2701 13.9153C69.1469 15.9519 69.1469 17.7195 69.1469 19.5406" stroke="black" stroke-width="2" stroke-linecap="round"/>
</g>
<g filter="url(#filter3_d_0_1)">
<path d="M69.1469 19.5406C70.7719 19.5406 75.8244 20.2419 82.6146 23.7017C87.1272 26.0009 90.1531 31.4216 91.6273 37.6339C92.3807 40.8087 91.3053 43.7665 90.2589 46.012C88.0276 50.8006 80.5641 52.9837 71.8257 54.8926C69.5706 55.2035 67.4287 55.3757 65.7514 55.5418C64.0741 55.7078 62.9263 55.8625 60.4094 56.1313" stroke="black" stroke-width="2" stroke-linecap="round"/>
</g>
<g filter="url(#filter4_d_0_1)">
<path d="M27.9687 58.9594C28.2151 60.1443 27.1866 64.2021 25.1462 68.9432C21.0383 78.4883 25.7463 96.5321 28.3652 103.645C31.2797 107.443 34.4341 109.48 36.7308 109.925C37.8622 109.955 38.9244 109.588 40.8594 108.488" stroke="black" stroke-width="2" stroke-linecap="round"/>
</g>
<g filter="url(#filter5_d_0_1)">
<path d="M64.2875 53.6188C64.8887 55.1443 69.7414 62.3639 75.1849 69.9403C78.6804 74.8056 81.1936 81.6003 81.9159 88.1885C82.6586 94.9621 81.3893 100.195 80.2594 102.096C77.7128 106.38 70.9073 106.438 64.9664 106.195C63.5644 105.837 62.5507 105.131 61.6057 103.673C60.6606 102.216 59.815 100.029 58.6469 96.25" stroke="black" stroke-width="2" stroke-linecap="round"/>
</g>
<g filter="url(#filter6_d_0_1)">
<path d="M42.7437 90.0813V106.722" stroke="black" stroke-width="2" stroke-linecap="round"/>
</g>
<g filter="url(#filter7_d_0_1)">
<path d="M44.4719 99.775C44.6946 99.775 44.9174 99.775 46.2165 99.5708C47.5157 99.3666 49.8844 98.9583 51.7936 98.7479C53.7028 98.5375 55.0805 98.5375 56.5 98.5375" stroke="black" stroke-width="2" stroke-linecap="round"/>
</g>
<g filter="url(#filter8_d_0_1)">
<path d="M84.1219 92.05C85.3388 91.5892 91.9014 90.8209 96.9501 92.5219C102.909 94.5297 105.94 103.04 110.222 104.849C112.761 105.922 115.652 104.543 117.946 103.181C120.645 101.579 122.269 98.0648 123.698 94.7395C125.024 91.6544 124.72 88.5216 124.005 85.82C123.326 84.428 122.005 82.9936 120.709 82.0112C119.413 81.0289 118.183 80.5421 115.778 80.0406" stroke="black" stroke-width="2" stroke-linecap="round"/>
</g>
<g filter="url(#filter9_d_0_1)">
<path d="M35.9594 36.575L36.875 39.5125" stroke="black" stroke-width="2" stroke-linecap="round"/>
</g>
<g filter="url(#filter10_d_0_1)">
<path d="M65.4344 33.2031C65.4344 33.6198 65.454 35.4586 65.941 37.5297C66.0891 38.1593 67.3232 37.197 67.8656 36.1838C68.4079 35.1707 68.5502 33.9476 68.2714 32.8602C67.9925 31.7728 67.2882 30.8581 66.4865 30.7684C65.6849 30.6788 64.8073 31.4419 64.3367 32.7167C63.866 33.9916 63.8289 35.755 64.1552 37.1688C64.4816 38.5825 65.1725 39.5931 66.1594 40.825" stroke="black" stroke-width="2" stroke-linecap="round"/>
</g>
<g filter="url(#filter11_d_0_1)">
<path d="M37.7344 29.7156C37.7344 32.9237 38.2335 40.1958 39.5095 41.448C40.1081 42.0353 41.3259 41.4307 41.8614 40.0345C42.3969 38.6383 42.3969 36.1891 42.1814 34.4612C41.9658 32.7334 41.5348 31.8011 39.6875 30.3562" stroke="black" stroke-width="2" stroke-linecap="round"/>
</g>
<g filter="url(#filter12_d_0_1)">
<path d="M53.275 42.6781C53.275 42.8782 53.275 44.0702 52.9213 46.0827C52.5676 47.0062 51.8601 47.7312 50.8795 48.1402C49.8989 48.5493 48.6666 48.6204 45.9719 47.4844" stroke="black" stroke-width="2" stroke-linecap="round"/>
</g>
<g filter="url(#filter13_d_0_1)">
<path d="M53.5969 46.8188C53.6258 46.8188 53.6546 46.8188 54.5316 46.8188C55.4086 46.8188 57.1329 46.8188 59.9844 47.0094" stroke="black" stroke-width="2" stroke-linecap="round"/>
</g>
<defs>
<filter id="filter0_d_0_1" x="0.227646" y="0.831055" width="48.3788" height="68.2627" filterUnits="userSpaceOnUse" color-interpolation-filters="sRGB">
<feFlood flood-opacity="0" result="BackgroundImageFix"/>
<feColorMatrix in="SourceAlpha" type="matrix" values="0 0 0 0 0 0 0 0 0 0 0 0 0 0 0 0 0 0 127 0" result="hardAlpha"/>
<feOffset dy="4"/>
<feGaussianBlur stdDeviation="2"/>
<feComposite in2="hardAlpha" operator="out"/>
<feColorMatrix type="matrix" values="0 0 0 0 0 0 0 0 0 0 0 0 0 0 0 0 0 0 0.25 0"/>
<feBlend mode="normal" in2="BackgroundImageFix" result="effect1_dropShadow_0_1"/>
<feBlend mode="normal" in="SourceGraphic" in2="effect1_dropShadow_0_1" result="shape"/>
</filter>
<filter id="filter1_d_0_1" x="38.6063" y="17.5813" width="25.1094" height="10.2156" filterUnits="userSpaceOnUse" color-interpolation-filters="sRGB">
<feFlood flood-opacity="0" result="BackgroundImageFix"/>
<feColorMatrix in="SourceAlpha" type="matrix" values="0 0 0 0 0 0 0 0 0 0 0 0 0 0 0 0 0 0 127 0" result="hardAlpha"/>
<feOffset dy="4"/>
<feGaussianBlur stdDeviation="2"/>
<feComposite in2="hardAlpha" operator="out"/>
<feColorMatrix type="matrix" values="0 0 0 0 0 0 0 0 0 0 0 0 0 0 0 0 0 0 0.25 0"/>
<feBlend mode="normal" in2="BackgroundImageFix" result="effect1_dropShadow_0_1"/>
<feBlend mode="normal" in="SourceGraphic" in2="effect1_dropShadow_0_1" result="shape"/>
</filter>
<filter id="filter2_d_0_1" x="53.7154" y="1.24031" width="20.9991" height="27.3003" filterUnits="userSpaceOnUse" color-interpolation-filters="sRGB">
<feFlood flood-opacity="0" result="BackgroundImageFix"/>
<feColorMatrix in="SourceAlpha" type="matrix" values="0 0 0 0 0 0 0 0 0 0 0 0 0 0 0 0 0 0 127 0" result="hardAlpha"/>
<feOffset dy="4"/>
<feGaussianBlur stdDeviation="2"/>
<feComposite in2="hardAlpha" operator="out"/>
<feColorMatrix type="matrix" values="0 0 0 0 0 0 0 0 0 0 0 0 0 0 0 0 0 0 0.25 0"/>
<feBlend mode="normal" in2="BackgroundImageFix" result="effect1_dropShadow_0_1"/>
<feBlend mode="normal" in="SourceGraphic" in2="effect1_dropShadow_0_1" result="shape"/>
</filter>
<filter id="filter3_d_0_1" x="55.4093" y="18.5406" width="41.4703" height="46.5907" filterUnits="userSpaceOnUse" color-interpolation-filters="sRGB">
<feFlood flood-opacity="0" result="BackgroundImageFix"/>
<feColorMatrix in="SourceAlpha" type="matrix" values="0 0 0 0 0 0 0 0 0 0 0 0 0 0 0 0 0 0 127 0" result="hardAlpha"/>
<feOffset dy="4"/>
<feGaussianBlur stdDeviation="2"/>
<feComposite in2="hardAlpha" operator="out"/>
<feColorMatrix type="matrix" values="0 0 0 0 0 0 0 0 0 0 0 0 0 0 0 0 0 0 0.25 0"/>
<feBlend mode="normal" in2="BackgroundImageFix" result="effect1_dropShadow_0_1"/>
<feBlend mode="normal" in="SourceGraphic" in2="effect1_dropShadow_0_1" result="shape"/>
</filter>
<filter id="filter4_d_0_1" x="18.5295" y="57.9592" width="27.33" height="60.9672" filterUnits="userSpaceOnUse" color-interpolation-filters="sRGB">
<feFlood flood-opacity="0" result="BackgroundImageFix"/>
<feColorMatrix in="SourceAlpha" type="matrix" values="0 0 0 0 0 0 0 0 0 0 0 0 0 0 0 0 0 0 127 0" result="hardAlpha"/>
<feOffset dy="4"/>
<feGaussianBlur stdDeviation="2"/>
<feComposite in2="hardAlpha" operator="out"/>
<feColorMatrix type="matrix" values="0 0 0 0 0 0 0 0 0 0 0 0 0 0 0 0 0 0 0.25 0"/>
<feBlend mode="normal" in2="BackgroundImageFix" result="effect1_dropShadow_0_1"/>
<feBlend mode="normal" in="SourceGraphic" in2="effect1_dropShadow_0_1" result="shape"/>
</filter>
<filter id="filter5_d_0_1" x="53.6466" y="52.6185" width="33.491" height="62.6557" filterUnits="userSpaceOnUse" color-interpolation-filters="sRGB">
<feFlood flood-opacity="0" result="BackgroundImageFix"/>
<feColorMatrix in="SourceAlpha" type="matrix" values="0 0 0 0 0 0 0 0 0 0 0 0 0 0 0 0 0 0 127 0" result="hardAlpha"/>
<feOffset dy="4"/>
<feGaussianBlur stdDeviation="2"/>
<feComposite in2="hardAlpha" operator="out"/>
<feColorMatrix type="matrix" values="0 0 0 0 0 0 0 0 0 0 0 0 0 0 0 0 0 0 0.25 0"/>
<feBlend mode="normal" in2="BackgroundImageFix" result="effect1_dropShadow_0_1"/>
<feBlend mode="normal" in="SourceGraphic" in2="effect1_dropShadow_0_1" result="shape"/>
</filter>
<filter id="filter6_d_0_1" x="37.7437" y="89.0813" width="10" height="26.6406" filterUnits="userSpaceOnUse" color-interpolation-filters="sRGB">
<feFlood flood-opacity="0" result="BackgroundImageFix"/>
<feColorMatrix in="SourceAlpha" type="matrix" values="0 0 0 0 0 0 0 0 0 0 0 0 0 0 0 0 0 0 127 0" result="hardAlpha"/>
<feOffset dy="4"/>
<feGaussianBlur stdDeviation="2"/>
<feComposite in2="hardAlpha" operator="out"/>
<feColorMatrix type="matrix" values="0 0 0 0 0 0 0 0 0 0 0 0 0 0 0 0 0 0 0.25 0"/>
<feBlend mode="normal" in2="BackgroundImageFix" result="effect1_dropShadow_0_1"/>
<feBlend mode="normal" in="SourceGraphic" in2="effect1_dropShadow_0_1" result="shape"/>
</filter>
<filter id="filter7_d_0_1" x="39.4719" y="97.5375" width="22.0281" height="11.2375" filterUnits="userSpaceOnUse" color-interpolation-filters="sRGB">
<feFlood flood-opacity="0" result="BackgroundImageFix"/>
<feColorMatrix in="SourceAlpha" type="matrix" values="0 0 0 0 0 0 0 0 0 0 0 0 0 0 0 0 0 0 127 0" result="hardAlpha"/>
<feOffset dy="4"/>
<feGaussianBlur stdDeviation="2"/>
<feComposite in2="hardAlpha" operator="out"/>
<feColorMatrix type="matrix" values="0 0 0 0 0 0 0 0 0 0 0 0 0 0 0 0 0 0 0.25 0"/>
<feBlend mode="normal" in2="BackgroundImageFix" result="effect1_dropShadow_0_1"/>
<feBlend mode="normal" in="SourceGraphic" in2="effect1_dropShadow_0_1" result="shape"/>
</filter>
<filter id="filter8_d_0_1" x="79.1216" y="79.0404" width="50.4955" height="35.1919" filterUnits="userSpaceOnUse" color-interpolation-filters="sRGB">
<feFlood flood-opacity="0" result="BackgroundImageFix"/>
<feColorMatrix in="SourceAlpha" type="matrix" values="0 0 0 0 0 0 0 0 0 0 0 0 0 0 0 0 0 0 127 0" result="hardAlpha"/>
<feOffset dy="4"/>
<feGaussianBlur stdDeviation="2"/>
<feComposite in2="hardAlpha" operator="out"/>
<feColorMatrix type="matrix" values="0 0 0 0 0 0 0 0 0 0 0 0 0 0 0 0 0 0 0.25 0"/>
<feBlend mode="normal" in2="BackgroundImageFix" result="effect1_dropShadow_0_1"/>
<feBlend mode="normal" in="SourceGraphic" in2="effect1_dropShadow_0_1" result="shape"/>
</filter>
<filter id="filter9_d_0_1" x="30.9591" y="35.5747" width="10.9161" height="12.938" filterUnits="userSpaceOnUse" color-interpolation-filters="sRGB">
<feFlood flood-opacity="0" result="BackgroundImageFix"/>
<feColorMatrix in="SourceAlpha" type="matrix" values="0 0 0 0 0 0 0 0 0 0 0 0 0 0 0 0 0 0 127 0" result="hardAlpha"/>
<feOffset dy="4"/>
<feGaussianBlur stdDeviation="2"/>
<feComposite in2="hardAlpha" operator="out"/>
<feColorMatrix type="matrix" values="0 0 0 0 0 0 0 0 0 0 0 0 0 0 0 0 0 0 0.25 0"/>
<feBlend mode="normal" in2="BackgroundImageFix" result="effect1_dropShadow_0_1"/>
<feBlend mode="normal" in="SourceGraphic" in2="effect1_dropShadow_0_1" result="shape"/>
</filter>
<filter id="filter10_d_0_1" x="58.9415" y="29.7611" width="14.4692" height="20.0639" filterUnits="userSpaceOnUse" color-interpolation-filters="sRGB">
<feFlood flood-opacity="0" result="BackgroundImageFix"/>
<feColorMatrix in="SourceAlpha" type="matrix" values="0 0 0 0 0 0 0 0 0 0 0 0 0 0 0 0 0 0 127 0" result="hardAlpha"/>
<feOffset dy="4"/>
<feGaussianBlur stdDeviation="2"/>
<feComposite in2="hardAlpha" operator="out"/>
<feColorMatrix type="matrix" values="0 0 0 0 0 0 0 0 0 0 0 0 0 0 0 0 0 0 0.25 0"/>
<feBlend mode="normal" in2="BackgroundImageFix" result="effect1_dropShadow_0_1"/>
<feBlend mode="normal" in="SourceGraphic" in2="effect1_dropShadow_0_1" result="shape"/>
</filter>
<filter id="filter11_d_0_1" x="32.7344" y="28.7156" width="14.5818" height="21.9555" filterUnits="userSpaceOnUse" color-interpolation-filters="sRGB">
<feFlood flood-opacity="0" result="BackgroundImageFix"/>
<feColorMatrix in="SourceAlpha" type="matrix" values="0 0 0 0 0 0 0 0 0 0 0 0 0 0 0 0 0 0 127 0" result="hardAlpha"/>
<feOffset dy="4"/>
<feGaussianBlur stdDeviation="2"/>
<feComposite in2="hardAlpha" operator="out"/>
<feColorMatrix type="matrix" values="0 0 0 0 0 0 0 0 0 0 0 0 0 0 0 0 0 0 0.25 0"/>
<feBlend mode="normal" in2="BackgroundImageFix" result="effect1_dropShadow_0_1"/>
<feBlend mode="normal" in="SourceGraphic" in2="effect1_dropShadow_0_1" result="shape"/>
</filter>
<filter id="filter12_d_0_1" x="40.9716" y="41.6781" width="17.3034" height="15.7354" filterUnits="userSpaceOnUse" color-interpolation-filters="sRGB">
<feFlood flood-opacity="0" result="BackgroundImageFix"/>
<feColorMatrix in="SourceAlpha" type="matrix" values="0 0 0 0 0 0 0 0 0 0 0 0 0 0 0 0 0 0 127 0" result="hardAlpha"/>
<feOffset dy="4"/>
<feGaussianBlur stdDeviation="2"/>
<feComposite in2="hardAlpha" operator="out"/>
<feColorMatrix type="matrix" values="0 0 0 0 0 0 0 0 0 0 0 0 0 0 0 0 0 0 0.25 0"/>
<feBlend mode="normal" in2="BackgroundImageFix" result="effect1_dropShadow_0_1"/>
<feBlend mode="normal" in="SourceGraphic" in2="effect1_dropShadow_0_1" result="shape"/>
</filter>
<filter id="filter13_d_0_1" x="48.5969" y="45.8188" width="16.3875" height="10.1907" filterUnits="userSpaceOnUse" color-interpolation-filters="sRGB">
<feFlood flood-opacity="0" result="BackgroundImageFix"/>
<feColorMatrix in="SourceAlpha" type="matrix" values="0 0 0 0 0 0 0 0 0 0 0 0 0 0 0 0 0 0 127 0" result="hardAlpha"/>
<feOffset dy="4"/>
<feGaussianBlur stdDeviation="2"/>
<feComposite in2="hardAlpha" operator="out"/>
<feColorMatrix type="matrix" values="0 0 0 0 0 0 0 0 0 0 0 0 0 0 0 0 0 0 0.25 0"/>
<feBlend mode="normal" in2="BackgroundImageFix" result="effect1_dropShadow_0_1"/>
<feBlend mode="normal" in="SourceGraphic" in2="effect1_dropShadow_0_1" result="shape"/>
</filter>
</defs>
</svg>
