<svg width="110" height="75" viewBox="0 0 110 75" fill="none" xmlns="http://www.w3.org/2000/svg">
<path d="M110 37.5C110 58.2107 85.3757 75 55 75C24.6243 75 0 58.2107 0 37.5C0 16.7893 24.6243 0 55 0C85.3757 0 110 16.7893 110 37.5Z" fill="#5C4747"/>
<path d="M110 37.5C110 58.2107 85.3757 75 55 75C24.6243 75 0 58.2107 0 37.5C0 16.7893 24.6243 0 55 0C85.3757 0 110 16.7893 110 37.5Z" fill="#5C4747"/>
<path d="M110 37.5C110 58.2107 85.3757 75 55 75C24.6243 75 0 58.2107 0 37.5C0 16.7893 24.6243 0 55 0C85.3757 0 110 16.7893 110 37.5Z" fill="#5C4747"/>
<path d="M110 37.5C110 58.2107 85.3757 75 55 75C24.6243 75 0 58.2107 0 37.5C0 16.7893 24.6243 0 55 0C85.3757 0 110 16.7893 110 37.5Z" fill="#5C4747"/>
</svg>
