<svg width="143" height="145" viewBox="0 0 143 145" fill="none" xmlns="http://www.w3.org/2000/svg">
<g filter="url(#filter0_i_0_1)">
<path d="M72.9737 139C111.358 139 142.474 107.884 142.474 69.5C142.474 31.1162 111.358 0 72.9737 0C34.5899 0 3.47372 31.1162 3.47372 69.5C3.47372 107.884 34.5899 139 72.9737 139Z" fill="#382EED"/>
</g>
<path d="M72.9737 1.5C110.529 1.5 140.974 31.9446 140.974 69.5C140.974 107.055 110.529 137.5 72.9737 137.5C35.4184 137.5 4.97372 107.055 4.97372 69.5C4.97372 31.9446 35.4184 1.5 72.9737 1.5Z" stroke="#00034C" stroke-width="3"/>
<g filter="url(#filter1_d_0_1)">
<path d="M34.2376 24.1771C29.4707 24.3409 26.5132 24.5694 25.5769 25.4469C22.6331 27.4631 19.6024 29.4152 18.4737 30.5C16.1518 32.91 5.82339 51.5 5.25231 60.129C4.51712 71.2376 5.33756 78.9054 8.38873 82.4467C11.921 86.5463 17.1633 93.4778 22.1586 93.1224C24.7814 92.9359 27.7079 92.4572 28.9365 90.4123C31.2544 86.5545 30.5748 79.695 35.3621 77.0428C37.2791 75.9807 42.6223 74.8896 48.1218 76.8526C54.6697 79.1898 65.2627 83.6346 70.5866 80.7346C73.4076 79.198 76.3951 77.7219 76.6114 75.3381C76.9267 71.8616 77.0007 67.8946 74.5328 66.1123C71.26 63.7487 67.9867 61.9642 67.2369 59.8247C65.6709 55.3567 68.2473 50.4878 67.3084 45.9528C66.8664 43.8182 66.6647 40.8597 64.587 40.0667C59.7458 38.2188 53.0809 39.9994 46.4454 38.5542C44.9868 38.2365 43.9697 37.7053 43.3227 36.2214C40.4156 29.5536 38.2935 24.0378 34.2376 24.1771Z" fill="#0EC95F"/>
<path d="M34.2376 24.1771C29.4707 24.3409 26.5132 24.5694 25.5769 25.4469C22.6331 27.4631 19.6024 29.4152 18.4737 30.5C16.1518 32.91 5.82339 51.5 5.25231 60.129C4.51712 71.2376 5.33756 78.9054 8.38873 82.4467C11.921 86.5463 17.1633 93.4778 22.1586 93.1224C24.7814 92.9359 27.7079 92.4572 28.9365 90.4123C31.2544 86.5545 30.5748 79.695 35.3621 77.0428C37.2791 75.9807 42.6223 74.8896 48.1218 76.8526C54.6697 79.1898 65.2627 83.6346 70.5866 80.7346C73.4076 79.198 76.3951 77.7219 76.6114 75.3381C76.9267 71.8616 77.0007 67.8946 74.5328 66.1123C71.26 63.7487 67.9867 61.9642 67.2369 59.8247C65.6709 55.3567 68.2473 50.4878 67.3084 45.9528C66.8664 43.8182 66.6647 40.8597 64.587 40.0667C59.7458 38.2188 53.0809 39.9994 46.4454 38.5542C44.9868 38.2365 43.9697 37.7053 43.3227 36.2214C40.4156 29.5536 38.2935 24.0378 34.2376 24.1771Z" stroke="#00034C" stroke-width="2" stroke-linecap="round"/>
</g>
<g filter="url(#filter2_d_0_1)">
<path d="M71.1786 133.467C73.1111 134.321 74.1597 134.584 74.2175 134.584C76.5213 135.874 77.5694 135.248 78.8832 135.402C81.7604 135.556 85.7892 135.765 88.4737 135.402C94.9769 133.712 103.178 131.737 108.974 127.247C112.93 124.183 117.733 120.032 120.339 114.275C122.814 108.808 123.721 102.837 120.847 98.7422C120.083 97.6529 118.952 96.7124 117.454 96.3091C115.957 95.9058 114.041 95.7209 112.732 96.3408C108.51 98.3389 103.973 106.368 98.3912 106.368C91.4737 106.368 90.4737 100.5 85.9121 102.543C81.3504 104.586 82.7148 108.255 82.4737 110C81.8576 114.46 80.9737 116.395 78.8832 117.5C74.9095 119.601 69.0337 118.283 67.6848 123.098C67.3331 124.354 67.2087 125.897 67.5631 127.247C68.2397 129.825 69.1092 132.552 71.1786 133.467Z" fill="#0EC95F"/>
<path d="M71.1786 133.467C73.1111 134.321 74.1597 134.584 74.2175 134.584C76.5213 135.874 77.5694 135.248 78.8832 135.402C81.7604 135.556 85.7892 135.765 88.4737 135.402C94.9769 133.712 103.178 131.737 108.974 127.247C112.93 124.183 117.733 120.032 120.339 114.275C122.814 108.808 123.721 102.837 120.847 98.7422C120.083 97.6529 118.952 96.7124 117.454 96.3091C115.957 95.9058 114.041 95.7209 112.732 96.3408C108.51 98.3389 103.973 106.368 98.3912 106.368C91.4737 106.368 90.4737 100.5 85.9121 102.543C81.3504 104.586 82.7148 108.255 82.4737 110C81.8576 114.46 80.9737 116.395 78.8832 117.5C74.9095 119.601 69.0337 118.283 67.6848 123.098C67.3331 124.354 67.2087 125.897 67.5631 127.247C68.2397 129.825 69.1092 132.552 71.1786 133.467Z" stroke="#00034C" stroke-width="2" stroke-linecap="round"/>
</g>
<g filter="url(#filter3_d_0_1)">
<path d="M98.4765 13.7656C100.185 12.7015 103.413 10.83 104.696 10.0875C105.796 10.6049 113.02 14.4046 113.974 15C117.439 18.057 120.185 18.7205 122.474 23.8465C122.2 32.9721 116.331 42.9231 111.081 44.7379C110.032 45.1003 108.361 45.5361 107.764 44.6318C105.386 41.033 105.083 35.8403 102.227 35.5409C97.5741 35.0531 93.0539 35.3035 91.3296 33.7679C90.5212 33.0481 90.1881 31.9209 90.19 30.705C90.1918 29.489 90.3245 28.0042 91.1794 27.4396C92.8054 26.3658 95.9972 26.0065 96.515 23.8465C96.9553 22.0098 94.6176 16.1694 98.4765 13.7656Z" fill="#0EC95F"/>
<path d="M98.4765 13.7656C100.185 12.7015 103.413 10.83 104.696 10.0875C105.796 10.6049 113.02 14.4046 113.974 15C117.439 18.057 120.185 18.7205 122.474 23.8465C122.2 32.9721 116.331 42.9231 111.081 44.7379C110.032 45.1003 108.361 45.5361 107.764 44.6318C105.386 41.033 105.083 35.8403 102.227 35.5409C97.5741 35.0531 93.0539 35.3035 91.3296 33.7679C90.5212 33.0481 90.1881 31.9209 90.19 30.705C90.1918 29.489 90.3245 28.0042 91.1794 27.4396C92.8054 26.3658 95.9972 26.0065 96.515 23.8465C96.9553 22.0098 94.6176 16.1694 98.4765 13.7656Z" stroke="#00034C" stroke-width="2" stroke-linecap="round"/>
</g>
<defs>
<filter id="filter0_i_0_1" x="3.47372" y="0" width="139" height="143" filterUnits="userSpaceOnUse" color-interpolation-filters="sRGB">
<feFlood flood-opacity="0" result="BackgroundImageFix"/>
<feBlend mode="normal" in="SourceGraphic" in2="BackgroundImageFix" result="shape"/>
<feColorMatrix in="SourceAlpha" type="matrix" values="0 0 0 0 0 0 0 0 0 0 0 0 0 0 0 0 0 0 127 0" result="hardAlpha"/>
<feOffset dy="4"/>
<feGaussianBlur stdDeviation="2"/>
<feComposite in2="hardAlpha" operator="arithmetic" k2="-1" k3="1"/>
<feColorMatrix type="matrix" values="0 0 0 0 0 0 0 0 0 0 0 0 0 0 0 0 0 0 0.25 0"/>
<feBlend mode="normal" in2="shape" result="effect1_innerShadow_0_1"/>
</filter>
<filter id="filter1_d_0_1" x="0" y="23.1745" width="81.7689" height="78.9611" filterUnits="userSpaceOnUse" color-interpolation-filters="sRGB">
<feFlood flood-opacity="0" result="BackgroundImageFix"/>
<feColorMatrix in="SourceAlpha" type="matrix" values="0 0 0 0 0 0 0 0 0 0 0 0 0 0 0 0 0 0 127 0" result="hardAlpha"/>
<feOffset dy="4"/>
<feGaussianBlur stdDeviation="2"/>
<feComposite in2="hardAlpha" operator="out"/>
<feColorMatrix type="matrix" values="0 0 0 0 0 0 0 0 0 0 0 0 0 0 0 0 0 0 0.25 0"/>
<feBlend mode="normal" in2="BackgroundImageFix" result="effect1_dropShadow_0_1"/>
<feBlend mode="normal" in="SourceGraphic" in2="effect1_dropShadow_0_1" result="shape"/>
</filter>
<filter id="filter2_d_0_1" x="62.3513" y="94.9391" width="65.2828" height="49.6641" filterUnits="userSpaceOnUse" color-interpolation-filters="sRGB">
<feFlood flood-opacity="0" result="BackgroundImageFix"/>
<feColorMatrix in="SourceAlpha" type="matrix" values="0 0 0 0 0 0 0 0 0 0 0 0 0 0 0 0 0 0 127 0" result="hardAlpha"/>
<feOffset dy="4"/>
<feGaussianBlur stdDeviation="2"/>
<feComposite in2="hardAlpha" operator="out"/>
<feColorMatrix type="matrix" values="0 0 0 0 0 0 0 0 0 0 0 0 0 0 0 0 0 0 0.25 0"/>
<feBlend mode="normal" in2="BackgroundImageFix" result="effect1_dropShadow_0_1"/>
<feBlend mode="normal" in="SourceGraphic" in2="effect1_dropShadow_0_1" result="shape"/>
</filter>
<filter id="filter3_d_0_1" x="85.1899" y="8.95988" width="42.2902" height="45.2073" filterUnits="userSpaceOnUse" color-interpolation-filters="sRGB">
<feFlood flood-opacity="0" result="BackgroundImageFix"/>
<feColorMatrix in="SourceAlpha" type="matrix" values="0 0 0 0 0 0 0 0 0 0 0 0 0 0 0 0 0 0 127 0" result="hardAlpha"/>
<feOffset dy="4"/>
<feGaussianBlur stdDeviation="2"/>
<feComposite in2="hardAlpha" operator="out"/>
<feColorMatrix type="matrix" values="0 0 0 0 0 0 0 0 0 0 0 0 0 0 0 0 0 0 0.25 0"/>
<feBlend mode="normal" in2="BackgroundImageFix" result="effect1_dropShadow_0_1"/>
<feBlend mode="normal" in="SourceGraphic" in2="effect1_dropShadow_0_1" result="shape"/>
</filter>
</defs>
</svg>
